<svg width="500" height="500" viewBox="0 0 500 500" fill="none" xmlns="http://www.w3.org/2000/svg">
<path d="M149.21 92.35C153.926 98.1211 156.479 105.357 156.43 112.81C156.38 117.03 155.6 121.68 158.06 125.11C159.92 127.71 163.32 129.02 164.83 131.84C166.65 135.23 165.1 139.52 166.22 143.2C167.8 148.42 173.92 150.61 177.55 154.68C179.097 156.48 180.18 158.631 180.703 160.947C181.226 163.262 181.173 165.67 180.55 167.96C179.889 170.241 178.693 172.33 177.061 174.056C175.43 175.781 173.41 177.092 171.17 177.88C168.778 178.823 166.11 178.78 163.75 177.76C161.3 176.54 159.75 174.03 158.55 171.58C156.14 166.76 134.97 140.71 133.77 135.45" fill="#263238"/>
<path d="M133.81 86.21C125.15 84.81 116.81 90.56 113.18 98.54C109.55 106.52 109.43 115.54 109.18 124.34C108.93 133.14 108.29 142.26 103.82 149.8C100.98 154.59 96.5802 158.8 95.8902 164.31C95.2702 169.25 97.8302 174.23 96.9802 179.14C96.2402 183.42 92.9802 187.14 93.1102 191.47C93.2702 196.69 98.6402 200.62 103.85 200.76C109.06 200.9 113.94 198.17 118.03 194.93C124.694 189.639 130.026 182.862 133.6 175.14" fill="#263238"/>
<path d="M119.56 106.85C119.288 104.672 119.456 102.461 120.055 100.349C120.654 98.2366 121.671 96.2663 123.046 94.5548C124.42 92.8433 126.125 91.4254 128.058 90.3853C129.992 89.3452 132.114 88.7041 134.3 88.5C143.03 87.66 150.8 94.17 152.11 102.85C153.26 110.46 154.24 118.14 154.21 120.93C154.1 129.34 149.21 132.61 147.21 133.6C146.491 133.858 145.747 134.042 144.99 134.15V134.15V134.21L146.85 143.87C147.7 150.2 144.17 155.87 137.85 156.76C131.53 157.65 126.56 152.82 125.59 146.49L119.56 106.85Z" fill="#FFBE9D"/>
<path d="M150.39 106.53C150.25 106.73 149.14 106.14 147.72 106.35C146.3 106.56 145.35 107.42 145.17 107.27C144.99 107.12 145.17 106.87 145.61 106.47C146.157 105.937 146.856 105.588 147.61 105.47C148.35 105.356 149.107 105.482 149.77 105.83C150.27 106.15 150.46 106.45 150.39 106.53Z" fill="#263238"/>
<path d="M137.73 109.61C137.59 109.81 136.48 109.21 135.05 109.42C133.62 109.63 132.69 110.5 132.51 110.35C132.33 110.2 132.51 109.94 132.95 109.55C133.497 109.017 134.196 108.668 134.95 108.55C135.691 108.444 136.446 108.574 137.11 108.92C137.6 109.23 137.8 109.52 137.73 109.61Z" fill="#263238"/>
<path d="M142.92 117.24C143.635 116.896 144.391 116.644 145.17 116.49C145.53 116.4 145.86 116.28 145.89 116.02C145.858 115.655 145.719 115.307 145.49 115.02L144 112.36C141.93 108.64 140.38 105.56 140.53 105.47C140.68 105.38 142.53 108.35 144.53 112.07C145.04 112.99 145.53 113.87 145.97 114.7C146.261 115.107 146.402 115.601 146.37 116.1C146.337 116.236 146.273 116.363 146.183 116.471C146.093 116.579 145.979 116.664 145.85 116.72C145.655 116.805 145.45 116.866 145.24 116.9C144.485 117.114 143.705 117.228 142.92 117.24Z" fill="#263238"/>
<path d="M144.91 134.16C144.91 134.16 139.48 135.41 132 132.28C132 132.28 135.23 139.23 145.42 136.76L144.91 134.16Z" fill="#EB996E"/>
<path d="M137 105.88C136.92 106.29 135.47 106.31 133.83 106.76C132.19 107.21 130.9 107.85 130.63 107.54C130.51 107.39 130.69 106.99 131.18 106.54C131.84 105.976 132.62 105.569 133.46 105.351C134.3 105.132 135.179 105.108 136.03 105.28C136.69 105.43 137 105.69 137 105.88Z" fill="#263238"/>
<path d="M149.22 103.38C149.02 103.74 147.99 103.55 146.81 103.7C145.63 103.85 144.66 104.24 144.38 103.93C144.26 103.78 144.38 103.44 144.76 103.07C145.285 102.605 145.943 102.318 146.64 102.25C147.329 102.167 148.027 102.296 148.64 102.62C149.12 102.89 149.31 103.2 149.22 103.38Z" fill="#263238"/>
<path d="M134.64 111.45C134.662 111.605 134.715 111.754 134.795 111.888C134.875 112.022 134.981 112.139 135.106 112.232C135.232 112.325 135.375 112.392 135.526 112.43C135.678 112.467 135.836 112.474 135.99 112.45C136.14 112.433 136.286 112.386 136.417 112.312C136.549 112.238 136.665 112.138 136.758 112.019C136.851 111.9 136.92 111.764 136.96 111.618C136.999 111.472 137.01 111.32 136.99 111.17C136.943 110.859 136.775 110.578 136.522 110.391C136.269 110.204 135.952 110.124 135.64 110.17C135.49 110.186 135.344 110.232 135.211 110.306C135.079 110.379 134.962 110.479 134.869 110.598C134.776 110.717 134.707 110.854 134.668 111.001C134.629 111.147 134.619 111.3 134.64 111.45V111.45Z" fill="#263238"/>
<path d="M147.25 108.72C147.297 109.031 147.465 109.311 147.719 109.499C147.972 109.686 148.289 109.766 148.6 109.72C148.75 109.703 148.896 109.656 149.027 109.582C149.159 109.508 149.275 109.408 149.368 109.289C149.461 109.17 149.53 109.034 149.569 108.888C149.609 108.742 149.62 108.59 149.6 108.44C149.553 108.129 149.385 107.848 149.132 107.661C148.879 107.474 148.562 107.394 148.25 107.44C148.099 107.456 147.953 107.502 147.821 107.576C147.688 107.649 147.572 107.749 147.479 107.868C147.385 107.987 147.317 108.124 147.278 108.271C147.239 108.417 147.229 108.57 147.25 108.72Z" fill="#263238"/>
<path d="M145.16 120C144.768 119.878 144.345 119.897 143.965 120.054C143.585 120.211 143.272 120.496 143.08 120.86C142.897 121.194 142.823 121.577 142.868 121.955C142.913 122.333 143.074 122.688 143.33 122.97C143.603 123.238 143.962 123.4 144.343 123.427C144.724 123.455 145.102 123.346 145.41 123.12C145.796 122.769 146.029 122.281 146.06 121.76C146.128 121.282 146.014 120.797 145.74 120.4C145.6 120.206 145.399 120.063 145.17 119.995C144.94 119.926 144.694 119.935 144.47 120.02" fill="#EB996E"/>
<path d="M151 96C150.215 92.8316 148.256 90.0795 145.52 88.3C143.28 86.6821 140.619 85.7478 137.86 85.61C135.083 85.4904 132.372 86.4756 130.32 88.35C128.864 89.7934 128.031 91.7498 128 93.8L128.16 92.4C127.74 93.5391 127.74 94.7908 128.16 95.93V95.93C128.39 96.54 128.67 97.16 128.91 97.77C129.626 99.5327 130.954 100.978 132.65 101.84C133.418 102.252 134.278 102.462 135.15 102.45C135.586 102.441 136.015 102.337 136.407 102.146C136.799 101.954 137.145 101.679 137.42 101.34C138.041 100.256 138.233 98.9788 137.96 97.76C138.616 98.9645 139.552 99.9934 140.69 100.76C141.271 101.131 141.961 101.291 142.646 101.213C143.331 101.134 143.968 100.823 144.45 100.33C145.27 99.33 144.95 97.75 144.45 96.51C145.224 97.6796 146.307 98.6109 147.58 99.2C147.915 99.3921 148.286 99.5126 148.67 99.5539C149.054 99.5952 149.442 99.5564 149.81 99.44C150.104 99.294 150.361 99.0832 150.562 98.8234C150.763 98.5635 150.903 98.2615 150.97 97.94C151.118 97.3029 151.129 96.6413 151 96Z" fill="#263238"/>
<path d="M143.77 98.66C143.68 98.66 143.7 97.47 143.31 95.66C142.86 93.2548 141.651 91.0572 139.86 89.39C138.876 88.4948 137.688 87.853 136.4 87.52C135.345 87.261 134.246 87.2338 133.18 87.44C132.197 87.6697 131.258 88.0581 130.4 88.59C130.4 88.59 130.57 88.34 131.01 88.02C131.641 87.5782 132.35 87.2594 133.1 87.08C134.221 86.8174 135.388 86.8174 136.51 87.08C137.892 87.4249 139.164 88.1128 140.21 89.08C142.085 90.816 143.31 93.1415 143.68 95.67C143.799 96.4174 143.859 97.1731 143.86 97.93C143.872 98.1767 143.842 98.4237 143.77 98.66V98.66Z" fill="#455A64"/>
<path d="M235.87 215.25L197.42 200C197.42 200 177.73 174.17 178.14 173.67L164.31 188.81L184.41 216L231 226.92L239 224.7C237.24 216.21 235.87 215.25 235.87 215.25Z" fill="#FFBE9D"/>
<path d="M152.07 141.56L146.83 139.56L124.21 142.43V146.43L123.56 146.51C118.684 147.547 114.007 149.363 109.71 151.89C105.685 154.347 102.486 157.952 100.526 162.241C98.5659 166.531 97.9334 171.308 98.7099 175.96C99.6299 181.68 101.41 188.63 104.85 192.65C111.42 200.34 117.42 190.84 117.42 190.84C117.42 190.84 121.54 200.24 121.3 204.69C121.1 208.42 119.46 216.18 118.93 218.6C118.908 218.697 118.906 218.797 118.924 218.894C118.943 218.992 118.981 219.084 119.036 219.167C119.091 219.249 119.162 219.319 119.246 219.373C119.329 219.427 119.422 219.463 119.52 219.48L167.24 228.31L167.47 216.64L165.95 168.64L163.8 150C163.8 150 163.87 141.1 152.07 141.56Z" fill="#4D56A4"/>
<path d="M163.07 146.9L181.27 173.19L166.62 191.03L163.07 146.9Z" fill="#4D56A4"/>
<path d="M167 202.22C166.935 201.656 166.911 201.088 166.93 200.52C166.93 199.34 166.93 197.79 166.87 195.9C166.781 190.827 166.417 185.763 165.78 180.73C165.03 174.83 163.88 169.56 163.01 165.73L161.95 161.23C161.796 160.686 161.683 160.131 161.61 159.57C161.837 160.09 162.018 160.628 162.15 161.18C162.46 162.18 162.88 163.75 163.36 165.65C164.651 170.584 165.633 175.594 166.3 180.65C166.943 185.704 167.257 190.795 167.24 195.89C167.24 197.89 167.19 199.43 167.13 200.52C167.135 201.089 167.092 201.658 167 202.22V202.22Z" fill="#263238"/>
<path d="M122.2 162.25C122.2 162.33 120.82 162.32 118.61 162.43C115.726 162.586 112.858 162.957 110.03 163.54C107.202 164.133 104.421 164.932 101.71 165.93C99.6298 166.7 98.3798 167.27 98.3398 167.19C98.5962 166.989 98.8788 166.824 99.1798 166.7C99.7298 166.4 100.55 166.02 101.58 165.59C106.976 163.362 112.743 162.168 118.58 162.07C119.7 162.07 120.58 162.07 121.23 162.13C121.557 162.119 121.885 162.16 122.2 162.25Z" fill="#FAFAFA"/>
<path d="M164.35 174.28C163.618 174.546 162.855 174.714 162.08 174.78C158.382 175.32 154.636 175.447 150.91 175.16C150.132 175.147 149.359 175.032 148.61 174.82C149.382 174.751 150.158 174.751 150.93 174.82C152.35 174.82 154.32 174.82 156.49 174.82C158.66 174.82 160.62 174.6 162.04 174.47C162.803 174.337 163.576 174.273 164.35 174.28Z" fill="#FAFAFA"/>
<path d="M172.7 162.39C171.598 163.664 170.277 164.73 168.8 165.54C167.406 166.483 165.85 167.16 164.21 167.54C164.15 167.4 166.21 166.54 168.53 165.06C170.85 163.58 172.6 162.27 172.7 162.39Z" fill="#FAFAFA"/>
<path d="M165.35 150.2C162.195 153.038 158.175 154.729 153.94 155C153.94 154.84 156.69 154.42 159.85 153.07C163.01 151.72 165.25 150.07 165.35 150.2Z" fill="#FAFAFA"/>
<path d="M166.34 194.64C166.046 194.838 165.731 195.002 165.4 195.13C164.77 195.43 163.86 195.8 162.7 196.23C159.686 197.313 156.575 198.103 153.41 198.59C150.245 199.079 147.04 199.256 143.84 199.12C142.61 199.07 141.62 198.98 140.94 198.89C140.584 198.866 140.232 198.803 139.89 198.7C139.89 198.61 141.41 198.7 143.89 198.76C150.248 198.819 156.574 197.847 162.62 195.88C164.9 195.13 166.31 194.56 166.34 194.64Z" fill="#FAFAFA"/>
<path d="M166.71 208.19C166.71 208.19 166.57 208.29 166.28 208.44L165 209C163.9 209.52 162.27 210.2 160.23 211C158.19 211.8 155.72 212.57 152.94 213.33C146.897 214.957 140.693 215.92 134.44 216.2C131.56 216.31 128.97 216.3 126.79 216.2C124.61 216.1 122.86 215.94 121.65 215.77L120.26 215.58C120.097 215.568 119.935 215.534 119.78 215.48C119.943 215.454 120.108 215.454 120.27 215.48L121.67 215.57C122.88 215.67 124.67 215.77 126.8 215.83C128.93 215.89 131.56 215.83 134.42 215.73C137.28 215.63 140.42 215.27 143.69 214.73C146.96 214.19 150.04 213.54 152.82 212.84C155.6 212.14 158.06 211.35 160.1 210.62C162.14 209.89 163.8 209.28 164.92 208.82L166.22 208.31C166.379 208.253 166.543 208.213 166.71 208.19V208.19Z" fill="#FAFAFA"/>
<path d="M79.0001 420.78L73.5901 445.21L63.7201 463.3C63.5522 463.609 63.4495 463.949 63.4183 464.299C63.3871 464.649 63.4281 465.002 63.5387 465.336C63.6493 465.669 63.8272 465.977 64.0614 466.239C64.2955 466.501 64.581 466.713 64.9001 466.86V466.86C65.2705 467.03 65.6763 467.109 66.0834 467.09C66.4906 467.07 66.8872 466.954 67.2401 466.75C71.8201 464.11 88.6301 454.28 88.9201 452.47C89.2701 450.38 96.3401 427.08 96.3401 427.08L79.0001 420.78Z" fill="#4D56A4"/>
<g opacity="0.6">
<path opacity="0.6" d="M64.8999 466.86L89.3299 450.86L89.0699 451.86C88.8561 452.752 88.3314 453.539 87.5899 454.08C85.5899 455.51 80.0199 459.35 67.3199 466.77C66.9553 466.983 66.5435 467.103 66.1212 467.119C65.699 467.135 65.2794 467.046 64.8999 466.86V466.86Z" fill="white"/>
</g>
<g opacity="0.6">
<path opacity="0.6" d="M86.2602 441.77C85.9074 441.917 85.6213 442.189 85.4571 442.535C85.2928 442.88 85.2619 443.273 85.3702 443.64C85.5037 443.997 85.7688 444.289 86.111 444.456C86.4533 444.624 86.8466 444.654 87.2102 444.54C87.588 444.384 87.8938 444.092 88.0677 443.722C88.2415 443.352 88.271 442.931 88.1502 442.54C87.9731 442.186 87.6673 441.913 87.2954 441.777C86.9235 441.642 86.5137 441.653 86.1502 441.81" fill="white"/>
</g>
<path d="M73.0602 457.6C72.6568 456.701 72.0906 455.884 71.3902 455.19C70.5835 454.628 69.6775 454.224 68.7202 454C68.7202 453.93 69.0702 453.82 69.6602 453.88C70.428 453.979 71.1505 454.298 71.7402 454.8C72.3344 455.282 72.7728 455.929 73.0002 456.66C73.1702 457.23 73.1202 457.6 73.0602 457.6Z" fill="#263238"/>
<path d="M70.5301 460.43C70.3901 460.51 69.8001 459.53 68.6301 458.86C67.8837 458.513 67.1154 458.216 66.3301 457.97C66.7618 457.829 67.221 457.792 67.6696 457.863C68.1183 457.935 68.5435 458.112 68.9101 458.38C70.2401 459.15 70.6701 460.4 70.5301 460.43Z" fill="#263238"/>
<path d="M77.3001 454.22C76.4498 453.276 75.5269 452.4 74.5401 451.6C73.4529 450.937 72.3162 450.358 71.1401 449.87C72.4926 449.842 73.8109 450.296 74.8601 451.15C76.0169 451.846 76.8834 452.936 77.3001 454.22Z" fill="#263238"/>
<path d="M79.5698 446.93C79.4698 447.06 78.2598 446.17 76.5698 445.68C74.8798 445.19 73.3498 445.27 73.3398 445.1C74.4529 444.812 75.6231 444.83 76.7268 445.152C77.8305 445.474 78.8266 446.088 79.6098 446.93H79.5698Z" fill="#263238"/>
<path d="M81.34 439.8C80.3645 439.197 79.3116 438.729 78.21 438.41C77.0753 438.256 75.9248 438.256 74.79 438.41C74.79 438.35 75.1 438.11 75.74 437.92C76.5813 437.692 77.4643 437.663 78.3186 437.837C79.1729 438.01 79.9747 438.381 80.66 438.92C81.17 439.4 81.38 439.76 81.34 439.8Z" fill="#263238"/>
<path d="M78.5799 437.06C78.5807 436.743 78.6489 436.429 78.7799 436.14C79.0633 435.314 79.5125 434.556 80.0999 433.91C80.4843 433.399 81.025 433.026 81.6399 432.85C81.8493 432.816 82.0642 432.845 82.2567 432.934C82.4493 433.023 82.6106 433.168 82.7199 433.35C82.9037 433.723 82.9429 434.15 82.8299 434.55C82.5735 435.352 82.0463 436.04 81.3385 436.496C80.6306 436.952 79.7863 437.148 78.9499 437.05C78.1252 436.933 77.3537 436.574 76.7327 436.018C76.1116 435.463 75.6688 434.736 75.4599 433.93C75.4119 433.725 75.4076 433.512 75.4472 433.306C75.4869 433.099 75.5696 432.903 75.6899 432.73C75.8281 432.569 76.0141 432.456 76.2208 432.407C76.4276 432.359 76.6444 432.377 76.8399 432.46C77.4052 432.742 77.8876 433.166 78.2399 433.69C78.7699 434.384 79.1728 435.166 79.4299 436C79.5518 436.298 79.6097 436.618 79.5999 436.94C79.1968 435.862 78.6339 434.851 77.9299 433.94C77.6022 433.513 77.177 433.17 76.6899 432.94C76.5828 432.894 76.4635 432.883 76.35 432.91C76.2364 432.937 76.1346 433 76.0599 433.09C75.9901 433.208 75.9451 433.339 75.9279 433.475C75.9107 433.611 75.9216 433.749 75.9599 433.88C76.1685 434.559 76.5645 435.165 77.1024 435.628C77.6402 436.092 78.2979 436.394 78.9999 436.5C79.7073 436.582 80.4215 436.422 81.0263 436.046C81.631 435.67 82.0906 435.101 82.3299 434.43C82.4268 434.158 82.4268 433.862 82.3299 433.59C82.2733 433.488 82.1858 433.405 82.08 433.355C81.9741 433.305 81.8552 433.289 81.7399 433.31C81.2188 433.453 80.7544 433.754 80.4099 434.17C79.6428 435.024 79.0243 436.001 78.5799 437.06V437.06Z" fill="#263238"/>
<g opacity="0.3">
<path opacity="0.3" d="M78.3399 423.43L77.1699 429.03L94.8599 431.97L96.3399 427.08L78.9699 420.78L78.3399 423.43Z" fill="black"/>
</g>
<path d="M158 429.82L156.54 449.34C156.54 449.34 175.9 457.34 175.98 461.02L137.98 459.55L138.98 429.03L158 429.82Z" fill="#4D56A4"/>
<g opacity="0.6">
<path opacity="0.6" d="M144.89 447.24C144.521 447.339 144.201 447.569 143.991 447.888C143.781 448.207 143.695 448.592 143.75 448.97C143.834 449.342 144.057 449.668 144.372 449.881C144.688 450.095 145.073 450.18 145.45 450.12C145.842 450.016 146.182 449.77 146.404 449.43C146.625 449.091 146.713 448.681 146.65 448.28C146.524 447.9 146.255 447.584 145.901 447.398C145.547 447.211 145.134 447.169 144.75 447.28" fill="white"/>
</g>
<g opacity="0.6">
<path opacity="0.6" d="M138 459.55L138.22 456.47L174.57 459C174.57 459 176.24 459.8 176 461L138 459.55Z" fill="white"/>
</g>
<path d="M157.18 449.17C157.18 449.36 156.24 449.41 155.31 449.97C154.38 450.53 153.86 451.29 153.69 451.21C153.52 451.13 153.84 450.07 154.98 449.41C156.12 448.75 157.23 449 157.18 449.17Z" fill="#263238"/>
<path d="M161.1 451C161.1 451.19 160.32 451.47 159.66 452.23C159 452.99 158.79 453.81 158.6 453.8C158.41 453.79 158.34 452.73 159.18 451.8C160.02 450.87 161.1 450.8 161.1 451Z" fill="#263238"/>
<path d="M163.18 455.83C163.01 455.83 162.79 454.92 163.3 453.93C163.81 452.94 164.7 452.56 164.77 452.72C164.84 452.88 164.29 453.4 163.88 454.22C163.47 455.04 163.36 455.82 163.18 455.83Z" fill="#263238"/>
<path d="M157 444.69C156.92 444.85 156.08 444.56 155 444.59C153.92 444.62 153.12 444.92 153 444.76C152.88 444.6 153.72 443.97 155 443.95C156.28 443.93 157.12 444.55 157 444.69Z" fill="#263238"/>
<g opacity="0.3">
<path opacity="0.3" d="M157.73 433.69L157.47 437.17L138.82 436.27L138.95 432.25L157.73 433.69Z" fill="black"/>
</g>
<path d="M157.25 440.74C156.622 440.892 155.963 440.864 155.35 440.66C154.657 440.516 153.985 440.284 153.35 439.97C152.98 439.788 152.622 439.58 152.28 439.35C152.071 439.222 151.882 439.063 151.72 438.88C151.61 438.737 151.55 438.561 151.55 438.38C151.55 438.199 151.61 438.023 151.72 437.88C151.817 437.753 151.943 437.652 152.088 437.584C152.232 437.516 152.39 437.484 152.55 437.49C152.791 437.5 153.029 437.54 153.26 437.61C153.66 437.727 154.048 437.881 154.42 438.07C155.051 438.378 155.629 438.787 156.13 439.28C156.98 440.13 157.25 440.84 157.19 440.87C157.13 440.9 156.7 440.33 155.83 439.62C155.319 439.221 154.762 438.885 154.17 438.62C153.817 438.474 153.457 438.347 153.09 438.24C152.69 438.12 152.35 438.11 152.24 438.24C152.13 438.37 152.24 438.34 152.24 438.46C152.36 438.592 152.498 438.707 152.65 438.8C152.971 439.023 153.305 439.227 153.65 439.41C154.227 439.728 154.833 439.989 155.46 440.19C156.069 440.331 156.667 440.514 157.25 440.74V440.74Z" fill="#263238"/>
<path d="M157 441C156.668 440.439 156.518 439.79 156.57 439.14C156.574 438.436 156.689 437.738 156.91 437.07C157.054 436.679 157.231 436.301 157.44 435.94C157.553 435.693 157.727 435.478 157.945 435.317C158.164 435.156 158.421 435.054 158.69 435.02C158.861 435.031 159.025 435.091 159.163 435.191C159.301 435.292 159.408 435.431 159.47 435.59C159.557 435.814 159.611 436.05 159.63 436.29C159.696 436.714 159.696 437.146 159.63 437.57C159.497 438.277 159.191 438.94 158.74 439.5C157.96 440.5 157.18 440.65 157.16 440.59C157.14 440.53 157.76 440.16 158.37 439.23C158.72 438.7 158.949 438.099 159.04 437.47C159.091 437.105 159.091 436.735 159.04 436.37C158.99 435.97 158.85 435.63 158.7 435.67C158.55 435.71 158.18 435.95 158.01 436.27C157.815 436.59 157.645 436.924 157.5 437.27C157.269 437.874 157.121 438.506 157.06 439.15C156.93 440.27 157.1 441 157 441Z" fill="#263238"/>
<path d="M118.72 219.3C118.72 219.3 112.72 219.57 108.72 240.09C104.72 260.61 74.23 426.88 74.23 426.88L96.34 427.08L138 269L135.23 432L157.69 433.72C157.69 433.72 174.54 253.43 174.69 242.94C174.89 229.86 167.38 216.63 167.38 216.63L118.72 219.3Z" fill="#263238"/>
<path d="M149.11 217.55C149.25 217.55 146.95 229.3 143.98 243.73C141.01 258.16 138.49 269.84 138.35 269.81C138.21 269.78 140.5 258.06 143.47 243.63C146.44 229.2 149 217.52 149.11 217.55Z" fill="#455A64"/>
<path d="M152.55 220.48C152.55 220.42 153.15 220.24 153.84 220.85C154.036 221.028 154.191 221.246 154.295 221.489C154.398 221.732 154.448 221.995 154.44 222.26C154.415 222.594 154.296 222.915 154.096 223.184C153.896 223.453 153.623 223.66 153.31 223.78C153.005 223.918 152.667 223.969 152.334 223.924C152.002 223.88 151.689 223.743 151.43 223.53C151.237 223.349 151.084 223.128 150.982 222.883C150.881 222.639 150.832 222.375 150.84 222.11C150.84 221.19 151.46 220.87 151.47 220.93C151.302 221.297 151.213 221.696 151.21 222.1C151.224 222.303 151.277 222.501 151.368 222.683C151.459 222.865 151.586 223.027 151.74 223.16C151.938 223.296 152.166 223.38 152.404 223.405C152.643 223.43 152.883 223.394 153.104 223.301C153.325 223.209 153.52 223.062 153.669 222.875C153.819 222.688 153.919 222.466 153.96 222.23C153.975 222.027 153.949 221.824 153.884 221.631C153.818 221.439 153.715 221.262 153.58 221.11C153.09 220.54 152.54 220.56 152.55 220.48Z" fill="#455A64"/>
<path d="M151.6 228.6C151.6 228.54 152.22 228.6 152.6 229.43C152.697 229.667 152.741 229.922 152.729 230.178C152.716 230.433 152.649 230.683 152.53 230.91C152.358 231.18 152.116 231.397 151.83 231.539C151.543 231.682 151.224 231.743 150.905 231.718C150.586 231.692 150.281 231.58 150.021 231.394C149.761 231.207 149.557 230.954 149.43 230.66C149.35 230.419 149.324 230.163 149.353 229.911C149.383 229.659 149.467 229.416 149.6 229.2C150.07 228.45 150.71 228.47 150.69 228.53C150.67 228.59 150.21 228.73 149.92 229.37C149.773 229.729 149.773 230.131 149.92 230.49C150.025 230.688 150.178 230.857 150.365 230.981C150.552 231.104 150.767 231.178 150.991 231.196C151.214 231.214 151.439 231.176 151.643 231.083C151.848 230.991 152.025 230.849 152.16 230.67C152.349 230.328 152.395 229.926 152.29 229.55C152 228.87 151.55 228.67 151.6 228.6Z" fill="#455A64"/>
<path d="M130.41 220.68C130.369 221.023 130.281 221.36 130.15 221.68C129.838 222.596 129.446 223.482 128.98 224.33C127.454 227.159 125.251 229.565 122.566 231.333C119.882 233.101 116.801 234.175 113.6 234.46C112.638 234.544 111.671 234.544 110.71 234.46C110.371 234.449 110.035 234.395 109.71 234.3C109.71 234.2 111.22 234.37 113.61 234.07C116.725 233.692 119.71 232.597 122.33 230.87C124.95 229.144 127.134 226.833 128.71 224.12C129.88 222.1 130.32 220.65 130.41 220.68Z" fill="#455A64"/>
<path d="M173.43 235.27C173.43 235.27 173.17 235.15 172.76 234.87C172.187 234.458 171.652 233.996 171.16 233.49C169.516 231.825 168.232 229.839 167.391 227.655C166.549 225.472 166.168 223.138 166.27 220.8C166.293 220.096 166.383 219.396 166.54 218.71C166.65 218.22 166.72 217.96 166.76 217.97C166.8 217.98 166.64 219.06 166.64 220.81C166.642 225.404 168.349 229.833 171.43 233.24C172.6 234.53 173.48 235.19 173.43 235.27Z" fill="#455A64"/>
<path d="M251 235.85C251.33 235.05 251.24 235.37 245.94 231.85C245.94 231.85 253.54 236.85 252.75 234.47C252.067 233.568 251.231 232.793 250.28 232.18C252.28 233.36 253.44 233.49 253.79 233.01C254.39 232.18 250.04 229.01 247.97 227.58C249.862 228.934 251.847 230.153 253.91 231.23C255.14 231.61 254.55 230.17 253.72 229.12C252.89 228.07 246.45 221.87 244.72 220.02C244.555 219.879 244.423 219.704 244.333 219.507C244.242 219.311 244.195 219.097 244.195 218.88C244.195 218.663 244.242 218.449 244.333 218.252C244.423 218.056 244.555 217.881 244.72 217.74C247.82 215.74 249.18 212.55 249.14 211.5C249.106 211.264 248.997 211.044 248.83 210.873C248.663 210.702 248.447 210.589 248.211 210.549C247.976 210.509 247.733 210.544 247.519 210.651C247.305 210.757 247.131 210.928 247.02 211.14C246.237 212.113 245.326 212.974 244.31 213.7C243.522 214.314 242.637 214.791 241.69 215.11C240.59 215.47 235.18 215.17 234.02 214.58L230.33 227.09C230.33 227.09 243.72 233.35 246.26 234.57C249.38 236.05 250.77 236.46 251 235.85Z" fill="#FFBE9D"/>
<path d="M243.53 230C243.42 230.15 245.16 231.42 247.41 232.85C249.66 234.28 251.55 235.31 251.64 235.16C251.73 235.01 249.99 233.73 247.75 232.31C245.51 230.89 243.63 229.81 243.53 230Z" fill="#EB996E"/>
<path d="M244.79 227.55C244.69 227.7 246.47 229.16 248.79 230.82C251.11 232.48 253.03 233.71 253.13 233.57C253.23 233.43 251.46 231.96 249.13 230.3C246.8 228.64 244.9 227.41 244.79 227.55Z" fill="#EB996E"/>
<path d="M246.12 225.07C246.02 225.21 247.68 226.63 249.83 228.23C251.98 229.83 253.83 231.01 253.91 230.87C253.99 230.73 252.36 229.31 250.21 227.71C248.06 226.11 246.23 224.93 246.12 225.07Z" fill="#EB996E"/>
<path d="M109.93 179.76L119.75 180.3C120.446 183.041 121.376 185.718 122.53 188.3C130.44 174.58 136.53 156.19 138.09 148.8C137.87 148.073 137.6 147.253 137.28 146.34C137.041 144.959 137.081 143.545 137.4 142.18C137.67 140.54 138.13 138.32 138.26 137.3C138.69 134.18 139.19 133.68 140.26 134.04C141.74 134.52 139.65 142.81 140.86 142.99C141.52 143.08 142.31 140.24 142.55 137.91C142.79 135.58 143.83 128.42 144.6 127.91C145.73 127.21 146.71 128.32 146.43 130.64C146.15 132.96 145.78 139.99 147.01 140.08C148.24 140.17 149.24 128.29 149.24 128.29C149.24 128.29 149.05 125.71 150.47 125.77C153.04 125.88 151.04 138.41 150.82 139.6C150.66 140.42 152 140.6 152.12 139.68C152.24 138.76 152.86 127.79 155.47 127.88C157.47 127.95 153.92 138.2 155.05 140.58C156.18 142.96 156.96 132.51 158.88 132.65C159.59 132.71 160.12 132.85 158.81 138.76C157.532 143.459 155.999 148.086 154.22 152.62C151.22 169.02 137.83 221.48 116.91 211.88C105.21 206.51 99.7402 179.88 99.7402 179.88L109.93 179.76Z" fill="#FFBE9D"/>
<path d="M154.24 152.71C154.257 152.586 154.291 152.465 154.34 152.35C154.43 152.09 154.54 151.75 154.69 151.35C155.02 150.4 155.47 149.08 156.06 147.35C156.65 145.62 157.36 143.52 158.06 141.04C158.42 139.81 158.72 138.47 158.99 137.04C159.13 136.32 159.26 135.58 159.35 134.82C159.375 134.444 159.375 134.066 159.35 133.69C159.35 133.3 159.26 132.98 158.95 132.97C158.64 132.96 158.42 133.15 158.2 133.48C158.001 133.833 157.837 134.205 157.71 134.59C157.43 135.38 157.21 136.22 156.99 137.07C156.77 137.92 156.57 138.81 156.31 139.71C156.197 140.203 155.993 140.671 155.71 141.09C155.639 141.172 155.545 141.231 155.44 141.26C155.374 141.275 155.306 141.274 155.24 141.258C155.174 141.243 155.113 141.213 155.06 141.17C154.945 141.065 154.85 140.939 154.78 140.8C154.674 140.554 154.604 140.295 154.57 140.03C154.525 138.013 154.726 135.998 155.17 134.03C155.34 133.03 155.52 132.03 155.65 131.03C155.71 130.52 155.77 130.03 155.78 129.49C155.79 128.95 155.71 128.38 155.5 128.29C155.29 128.2 154.78 128.48 154.5 128.9C154.224 129.344 154.005 129.821 153.85 130.32C153.509 131.365 153.252 132.435 153.08 133.52C152.89 134.62 152.74 135.74 152.61 136.88C152.56 137.45 152.5 138.02 152.45 138.6L152.37 139.47C152.381 139.656 152.351 139.842 152.281 140.015C152.212 140.187 152.106 140.343 151.97 140.47C151.799 140.595 151.592 140.663 151.38 140.663C151.168 140.663 150.961 140.595 150.79 140.47C150.693 140.406 150.611 140.322 150.549 140.224C150.487 140.125 150.446 140.015 150.43 139.9C150.415 139.794 150.415 139.686 150.43 139.58V139.37L150.7 137.62C150.87 136.44 151.01 135.26 151.12 134.06C151.23 132.86 151.32 131.65 151.34 130.44C151.399 129.242 151.277 128.042 150.98 126.88C150.911 126.585 150.732 126.328 150.48 126.16C150.36 126.121 150.23 126.122 150.109 126.161C149.989 126.201 149.884 126.277 149.81 126.38C149.486 126.972 149.354 127.65 149.43 128.32V128.32C149.21 130.67 148.96 132.98 148.62 135.25C148.45 136.38 148.26 137.51 147.98 138.62C147.9 138.89 147.82 139.17 147.72 139.45C147.625 139.789 147.426 140.09 147.15 140.31C147.028 140.37 146.89 140.387 146.757 140.358C146.625 140.328 146.506 140.255 146.42 140.15C146.298 140.022 146.206 139.868 146.15 139.7C146.042 139.423 145.965 139.134 145.92 138.84C145.686 136.664 145.666 134.47 145.86 132.29C146.008 131.274 146.065 130.246 146.03 129.22C145.998 128.782 145.797 128.373 145.47 128.08C145.393 128.032 145.308 128.001 145.218 127.987C145.129 127.973 145.038 127.978 144.95 128C144.857 128.032 144.766 128.072 144.68 128.12C144.59 128.2 144.6 128.12 144.54 128.29C144.178 129.189 143.914 130.125 143.75 131.08C143.55 132.08 143.38 132.99 143.23 133.93C143.08 134.87 142.94 135.79 142.82 136.71C142.7 137.63 142.64 138.53 142.46 139.43C142.305 140.309 142.07 141.173 141.76 142.01C141.678 142.223 141.581 142.43 141.47 142.63C141.33 142.82 141.25 143.06 140.87 143.18C140.773 143.198 140.673 143.186 140.582 143.147C140.491 143.108 140.414 143.043 140.36 142.96C140.29 142.845 140.236 142.72 140.2 142.59C140.155 142.373 140.128 142.152 140.12 141.93C140.12 140.22 140.35 138.66 140.44 137.15C140.505 136.428 140.505 135.702 140.44 134.98C140.44 134.66 140.29 134.28 140.11 134.21C139.984 134.148 139.846 134.116 139.705 134.116C139.565 134.116 139.426 134.148 139.3 134.21C138.88 134.661 138.62 135.237 138.56 135.85C138.41 136.46 138.35 137.08 138.24 137.67C137.82 140.03 137.38 142.07 137.17 143.73C137.072 144.46 137.072 145.2 137.17 145.93C137.31 146.53 137.52 147.07 137.63 147.49C137.74 147.91 137.85 148.21 137.92 148.49C137.957 148.597 137.984 148.708 138 148.82C137.94 148.723 137.893 148.619 137.86 148.51L137.52 147.51C137.38 147.08 137.17 146.6 137 145.94C136.893 145.19 136.893 144.43 137 143.68C137.19 141.99 137.59 139.97 138 137.6C138.11 137.01 138.17 136.39 138.3 135.75C138.372 135.412 138.462 135.078 138.57 134.75C138.67 134.386 138.888 134.066 139.19 133.84C139.372 133.744 139.574 133.693 139.78 133.693C139.986 133.693 140.188 133.744 140.37 133.84C140.566 133.963 140.726 134.135 140.837 134.338C140.947 134.541 141.003 134.769 141 135C141.07 135.752 141.07 136.508 141 137.26C140.93 138.78 140.69 140.37 140.73 141.99C140.737 142.182 140.761 142.372 140.8 142.56C140.8 142.75 140.94 142.83 140.92 142.79C140.9 142.75 141.11 142.63 141.19 142.47C141.289 142.293 141.376 142.109 141.45 141.92C141.746 141.109 141.964 140.272 142.1 139.42C142.27 138.55 142.33 137.65 142.45 136.72C142.57 135.79 142.69 134.87 142.84 133.92C142.99 132.97 143.16 132.02 143.35 131.05C143.513 130.037 143.795 129.047 144.19 128.1C144.27 127.941 144.391 127.807 144.54 127.71C144.673 127.637 144.814 127.58 144.96 127.54C145.128 127.492 145.304 127.481 145.476 127.507C145.649 127.532 145.814 127.595 145.96 127.69C146.192 127.874 146.384 128.104 146.523 128.366C146.663 128.627 146.747 128.915 146.77 129.21C146.845 129.754 146.845 130.306 146.77 130.85C146.72 131.36 146.67 131.85 146.64 132.41C146.445 134.54 146.465 136.684 146.7 138.81C146.743 139.063 146.81 139.31 146.9 139.55C146.93 139.647 146.981 139.736 147.05 139.81C147.05 139.81 147.05 139.81 147.1 139.81C147.1 140.04 147.1 139.81 147.1 139.9C147.1 139.99 147.1 139.9 147.1 139.82C147.225 139.653 147.323 139.467 147.39 139.27C147.483 139.023 147.563 138.763 147.63 138.49C147.9 137.43 148.08 136.31 148.25 135.19C148.59 132.94 148.84 130.63 149.05 128.29V128.34C148.961 127.516 149.14 126.685 149.56 125.97C149.721 125.766 149.941 125.616 150.19 125.543C150.439 125.47 150.705 125.475 150.95 125.56C151.16 125.676 151.344 125.834 151.492 126.023C151.64 126.212 151.748 126.428 151.81 126.66C152.13 127.89 152.262 129.161 152.2 130.43C152.2 131.67 152.09 132.89 151.98 134.1C151.87 135.31 151.72 136.5 151.55 137.68C151.46 138.28 151.37 138.86 151.28 139.45C151.2 139.82 151.22 139.83 151.28 139.94C151.35 139.987 151.431 140.012 151.515 140.012C151.599 140.012 151.681 139.987 151.75 139.94C151.87 139.85 151.89 139.68 151.92 139.35L151.99 138.48L152.17 136.75C152.29 135.61 152.45 134.47 152.64 133.36C152.825 132.245 153.093 131.145 153.44 130.07C153.622 129.526 153.867 129.006 154.17 128.52C154.335 128.258 154.553 128.033 154.81 127.86C154.953 127.757 155.118 127.689 155.292 127.663C155.466 127.637 155.644 127.653 155.81 127.71C155.963 127.804 156.093 127.933 156.188 128.086C156.283 128.238 156.342 128.411 156.36 128.59C156.401 128.871 156.418 129.156 156.41 129.44C156.41 129.99 156.34 130.52 156.28 131.05C156.14 132.05 155.95 133.11 155.77 134.12C155.341 136.02 155.133 137.963 155.15 139.91C155.178 140.119 155.232 140.324 155.31 140.52C155.346 140.591 155.39 140.658 155.44 140.72C155.44 140.72 155.44 140.72 155.44 140.65C155.665 140.289 155.83 139.894 155.93 139.48C156.19 138.61 156.4 137.73 156.63 136.87C156.836 136.014 157.087 135.17 157.38 134.34C157.519 133.929 157.7 133.534 157.92 133.16C158.039 132.956 158.195 132.777 158.38 132.63C158.481 132.543 158.601 132.481 158.73 132.45C158.859 132.43 158.991 132.43 159.12 132.45C159.257 132.464 159.387 132.513 159.498 132.594C159.608 132.675 159.696 132.784 159.75 132.91C159.834 133.12 159.878 133.344 159.88 133.57C159.888 133.975 159.864 134.379 159.81 134.78C159.72 135.56 159.57 136.3 159.43 137.03C159.14 138.46 158.82 139.82 158.43 141.03C157.68 143.51 156.93 145.61 156.32 147.32C155.71 149.03 155.19 150.32 154.84 151.24C154.67 151.66 154.53 151.99 154.43 152.24C154.385 152.404 154.322 152.561 154.24 152.71Z" fill="#EB996E"/>
<path d="M99.6499 180.89C101.55 187.6 105.27 197.95 109.26 208.89C109.386 209.242 109.613 209.55 109.914 209.773C110.214 209.996 110.574 210.124 110.948 210.143C111.322 210.161 111.693 210.068 112.013 209.875C112.334 209.682 112.59 209.398 112.75 209.06L122.53 188.37C122.53 188.37 120.17 171.37 120.37 171.98C120.57 172.59 100.19 174.18 100.19 174.18L99.6499 180.89Z" fill="#4D56A4"/>
<path d="M121.69 177.56C121.69 177.64 120.47 178 118.54 178.74C116.018 179.697 113.588 180.882 111.28 182.28C108.975 183.684 106.8 185.291 104.78 187.08C103.23 188.45 102.34 189.39 102.28 189.33C102.22 189.27 102.45 189.05 102.83 188.6C103.366 187.975 103.933 187.377 104.53 186.81C106.501 184.912 108.674 183.235 111.01 181.81C113.347 180.402 115.827 179.249 118.41 178.37C119.191 178.101 119.985 177.874 120.79 177.69C121.081 177.599 121.385 177.555 121.69 177.56V177.56Z" fill="#FAFAFA"/>
<path d="M125.57 182.72C124.934 182.079 124.383 181.36 123.93 180.58C122.762 178.759 121.758 176.838 120.93 174.84C120.101 172.836 119.455 170.761 119 168.64C118.767 167.773 118.649 166.878 118.65 165.98C118.948 166.818 119.185 167.677 119.36 168.55C119.896 170.621 120.564 172.655 121.36 174.64C122.192 176.615 123.147 178.535 124.22 180.39C124.719 181.137 125.17 181.915 125.57 182.72Z" fill="#263238"/>
<path d="M132.09 91.1C130.394 93.8962 129.342 97.0355 129.012 100.289C128.681 103.543 129.08 106.83 130.18 109.91C131.18 112.66 132.78 115.37 132.49 118.29C132.2 121.21 129.92 124.1 130.72 126.98C131.2 128.69 132.66 129.98 133.23 131.64C133.88 133.64 133.23 135.75 132.88 137.8C132.08 143.04 133.76 148.31 134.17 153.59C134.58 158.87 133.17 165.06 128.45 167.36C127.02 168.06 125.15 168.26 123.96 167.19C122.44 165.84 122.86 163.4 123.28 161.4C127.42 141.4 114.63 121.88 117.55 101.64C118.02 98.4 119.83 92.9 122.16 90.64C124.49 88.38 130.96 88.64 133.16 91.04" fill="#263238"/>
<path d="M112.39 149.12C112.39 149.12 113 148.4 113.9 146.98C115.163 144.975 116.048 142.754 116.51 140.43C116.812 138.829 116.916 137.197 116.82 135.57C116.645 133.679 116.575 131.779 116.61 129.88C116.67 128.84 116.861 127.812 117.18 126.82C117.546 125.798 118.008 124.814 118.56 123.88C119.68 121.99 121.09 120.23 122.39 118.35C123.725 116.573 124.654 114.525 125.11 112.35C125.332 110.301 125.214 108.23 124.76 106.22C124.382 104.352 124.234 102.444 124.32 100.54C124.439 98.8767 124.775 97.2361 125.32 95.66C126.084 93.373 127.286 91.2568 128.86 89.43C129.278 88.9333 129.733 88.4687 130.22 88.04C130.375 87.8753 130.549 87.7308 130.74 87.61C130.74 87.61 130.07 88.26 129.01 89.61C126.485 92.7438 125.009 96.5917 124.79 100.61C124.723 102.483 124.888 104.357 125.28 106.19C125.757 108.254 125.886 110.383 125.66 112.49C125.186 114.726 124.231 116.831 122.86 118.66C121.55 120.57 120.14 122.32 119.04 124.16C118.499 125.059 118.05 126.011 117.7 127C117.384 127.951 117.192 128.939 117.13 129.94C117.086 131.818 117.139 133.697 117.29 135.57C117.37 137.229 117.242 138.892 116.91 140.52C116.409 142.876 115.458 145.114 114.11 147.11C113.745 147.65 113.344 148.164 112.91 148.65C112.755 148.825 112.58 148.983 112.39 149.12V149.12Z" fill="#455A64"/>
<path d="M102.91 150.61C102.991 150.377 103.095 150.152 103.22 149.94C103.47 149.47 103.79 148.85 104.22 148.07C105.06 146.44 106.31 144.07 107.54 141.07C109.045 137.566 109.879 133.811 110 130C110.001 128.902 109.917 127.805 109.75 126.72C109.58 125.6 109.32 124.47 109.15 123.29C108.942 122.069 108.969 120.82 109.23 119.61C109.568 118.367 110.264 117.251 111.23 116.4C113.11 114.69 115.38 113.57 116.56 111.56C117.582 109.567 118.185 107.385 118.33 105.15C118.542 103.101 119.005 101.086 119.71 99.1499C121.295 94.9944 124.119 91.4266 127.8 88.9299C128.387 88.535 128.998 88.1776 129.63 87.8599C129.844 87.7321 130.072 87.6314 130.31 87.5599C130.31 87.5599 129.41 88.0399 127.92 89.0999C125.82 90.5986 124.002 92.4573 122.55 94.5899C121.543 96.0519 120.724 97.6342 120.11 99.2999C119.436 101.24 119 103.255 118.81 105.3C118.51 107.43 118.27 109.81 116.99 111.92C115.71 114.03 113.37 115.23 111.58 116.92C110.668 117.712 110.01 118.755 109.69 119.92C109.447 121.065 109.423 122.246 109.62 123.4C109.78 124.55 110.03 125.69 110.2 126.82C110.373 127.931 110.453 129.055 110.44 130.18C110.304 134.061 109.425 137.88 107.85 141.43C106.827 143.829 105.665 146.166 104.37 148.43L103.31 150C103.199 150.217 103.065 150.421 102.91 150.61V150.61Z" fill="#455A64"/>
<path d="M337.57 126.54C337.57 126.54 337.3 126.54 336.78 126.54C336.021 126.495 335.26 126.495 334.5 126.54C331.563 126.712 328.678 127.389 325.97 128.54C321.679 130.339 317.944 133.249 315.15 136.97C313.428 139.294 312.147 141.914 311.37 144.7C309.62 151.337 310.565 158.397 314 164.34C314.936 165.985 316.079 167.504 317.4 168.86C318.733 170.296 320.286 171.511 322 172.46C323.76 173.45 325.752 173.951 327.77 173.91C329.851 173.885 331.847 173.078 333.36 171.65C334.092 170.883 334.665 169.98 335.048 168.992C335.431 168.003 335.615 166.95 335.59 165.89C335.575 163.689 334.876 161.547 333.59 159.76C331 156.11 326.8 153.66 322.33 152.34C317.695 151.038 312.8 150.969 308.13 152.14C305.746 152.76 303.449 153.674 301.29 154.86C299.111 156.09 297.132 157.644 295.42 159.47C295.01 159.94 294.54 160.37 294.17 160.89L293.04 162.41C292.353 163.481 291.738 164.597 291.2 165.75C290.131 168.091 289.4 170.573 289.03 173.12C288.304 178.209 288.996 183.399 291.03 188.12C292.974 192.733 296.36 196.592 300.68 199.12C302.775 200.317 305.113 201.025 307.52 201.19C309.88 201.322 312.227 200.759 314.27 199.57C316.298 198.449 317.9 196.692 318.83 194.57C319.707 192.478 319.768 190.134 319 188C318.21 185.941 316.917 184.112 315.24 182.68C313.613 181.274 311.738 180.185 309.71 179.47C305.756 178.223 301.525 178.15 297.53 179.26C293.792 180.273 290.359 182.185 287.53 184.83C284.954 187.298 282.991 190.336 281.8 193.7C279.717 199.536 279.813 205.929 282.07 211.7C283.831 216.008 286.664 219.795 290.3 222.7C292.591 224.537 295.142 226.024 297.87 227.11C298.81 227.46 299.54 227.72 300.04 227.86L300.78 228.1C300.78 228.1 300.52 228.05 300.02 227.91C299.281 227.712 298.554 227.475 297.84 227.2C295.076 226.161 292.492 224.697 290.18 222.86C286.482 219.957 283.593 216.152 281.79 211.81C279.493 205.984 279.376 199.525 281.46 193.62C282.653 190.205 284.637 187.121 287.25 184.62C290.119 181.922 293.603 179.965 297.4 178.92C301.479 177.782 305.8 177.852 309.84 179.12C311.927 179.848 313.858 180.964 315.53 182.41C317.273 183.889 318.615 185.784 319.43 187.92C320.253 190.15 320.217 192.605 319.33 194.81C318.344 197.016 316.671 198.843 314.56 200.02C312.442 201.255 310.009 201.845 307.56 201.72C305.095 201.548 302.701 200.816 300.56 199.58C296.141 197.017 292.671 193.091 290.67 188.39C288.593 183.583 287.88 178.296 288.61 173.11C288.992 170.511 289.739 167.979 290.83 165.59C291.38 164.412 292.008 163.273 292.71 162.18L293.87 160.63C294.24 160.1 294.72 159.63 295.14 159.17C296.892 157.31 298.915 155.725 301.14 154.47C303.349 153.261 305.701 152.334 308.14 151.71C312.899 150.517 317.888 150.59 322.61 151.92C327.17 153.28 331.44 155.77 334.13 159.55C335.482 161.411 336.217 163.65 336.23 165.95C336.279 168.214 335.426 170.405 333.86 172.04C332.26 173.542 330.155 174.388 327.96 174.41C325.861 174.458 323.787 173.936 321.96 172.9C320.205 171.931 318.618 170.685 317.26 169.21C315.922 167.824 314.763 166.275 313.81 164.6C310.314 158.547 309.365 151.353 311.17 144.6C311.971 141.781 313.282 139.134 315.04 136.79C317.885 133.04 321.684 130.122 326.04 128.34C328.77 127.211 331.678 126.574 334.63 126.46C335.396 126.409 336.164 126.409 336.93 126.46L337.57 126.54Z" fill="#263238"/>
<path d="M370.96 226.6H230.75V334.74H370.96V226.6Z" fill="#4D56A4"/>
<path d="M230.75 226.6L256.65 250.76H394.48L370.96 226.6H230.75Z" fill="#4D56A4"/>
<path d="M230.75 226.6L371 226.35H371.11L371.19 226.42L394.47 250.33L394.71 250.58L395.14 251.02H394.52L256.69 250.91H256.63L230.75 226.6L256.75 250.6H256.64L394.47 250.5L394.29 250.94L394.04 250.69L370.77 226.78L370.95 226.86L230.75 226.6Z" fill="#263238"/>
<path d="M272.87 276.47C272.111 276.497 271.392 276.822 270.87 277.374C270.347 277.926 270.062 278.661 270.076 279.421C270.089 280.18 270.401 280.905 270.943 281.437C271.486 281.97 272.215 282.268 272.975 282.268C273.735 282.268 274.465 281.97 275.007 281.437C275.549 280.905 275.861 280.18 275.875 279.421C275.888 278.661 275.603 277.926 275.081 277.374C274.558 276.822 273.84 276.497 273.08 276.47" fill="white"/>
<path d="M306 276.47C305.244 276.499 304.529 276.823 304.009 277.374C303.489 277.924 303.206 278.656 303.221 279.413C303.235 280.17 303.546 280.891 304.086 281.421C304.627 281.951 305.353 282.248 306.11 282.248C306.867 282.248 307.594 281.951 308.134 281.421C308.675 280.891 308.985 280.17 309 279.413C309.014 278.656 308.731 277.924 308.211 277.374C307.692 276.823 306.977 276.499 306.22 276.47" fill="white"/>
<path d="M306.19 302.35C305.612 300.141 304.673 298.043 303.41 296.14C302.006 294.105 300.203 292.377 298.11 291.06C295.586 289.385 292.641 288.452 289.613 288.369C286.584 288.286 283.593 289.056 280.98 290.59C278.823 291.795 276.929 293.42 275.41 295.37C274.043 297.202 272.992 299.251 272.3 301.43C272.308 301.267 272.335 301.106 272.38 300.95C272.476 300.499 272.6 300.055 272.75 299.62C273.298 298.014 274.098 296.505 275.12 295.15C276.628 293.109 278.545 291.406 280.75 290.15C283.43 288.55 286.51 287.746 289.63 287.831C292.75 287.916 295.781 288.887 298.37 290.63C300.499 291.998 302.318 293.797 303.71 295.91C304.66 297.32 305.379 298.873 305.84 300.51C305.963 300.954 306.06 301.405 306.13 301.86C306.165 302.021 306.185 302.185 306.19 302.35V302.35Z" fill="white"/>
<path opacity="0.5" d="M231.07 227.79L255.87 259.23H370.96V250.76H256.65L231.07 227.79Z" fill="black"/>
<path d="M343.31 334.5C343.17 334.5 343.05 315.69 343.05 292.5C343.05 269.31 343.17 250.5 343.31 250.5C343.45 250.5 343.58 269.3 343.58 292.5C343.58 315.7 343.46 334.5 343.31 334.5Z" fill="#263238"/>
<path d="M365.33 309.98H352.97V323.95H365.33V309.98Z" fill="#F5F5F5"/>
<path d="M230.75 226.6L201.97 250.76H230.75V226.6Z" fill="#4D56A4"/>
<g opacity="0.4">
<path opacity="0.4" d="M230.75 226.6L201.97 250.76H230.75V226.6Z" fill="black"/>
</g>
<path d="M375.1 334.74H213.89V459.08H375.1V334.74Z" fill="#4D56A4"/>
<path opacity="0.3" d="M375.1 334.74H213.89V459.08H375.1V334.74Z" fill="black"/>
<path d="M334.71 458.2C334.57 458.2 334.45 430.49 334.45 396.31C334.45 362.13 334.57 334.41 334.71 334.41C334.85 334.41 334.97 362.12 334.97 396.31C334.97 430.5 334.85 458.2 334.71 458.2Z" fill="#263238"/>
<path d="M361.43 430.78H349.07V444.75H361.43V430.78Z" fill="#F5F5F5"/>
<path d="M281.38 335.07H263.07V361.6H281.38V335.07Z" fill="#263238"/>
<path d="M281.38 432.18H263.07V458.71H281.38V432.18Z" fill="#263238"/>
<path d="M373.7 334.74H373.28H372.07L367.42 334.79L350.29 334.87L293.8 335L237.29 334.93L220.17 334.85L215.52 334.8H214.3H213.89H214.3H215.52L220.17 334.75L237.29 334.67L293.8 334.59L350.29 334.67L367.42 334.75L372.07 334.8H373.28L373.7 334.74Z" fill="#263238"/>
<path d="M97.4198 119.47L79.8598 115.15H79.9898C75.4558 118.034 70.2127 119.609 64.8398 119.7C61.659 119.714 58.4939 119.253 55.4498 118.33C50.098 116.612 45.3499 113.397 41.7668 109.066C38.1837 104.735 35.9154 99.469 35.2298 93.89C34.6914 89.6706 35.0878 85.3844 36.3908 81.3354C37.6939 77.2863 39.8717 73.5734 42.7698 70.46C44.2933 68.7866 46.0008 67.2904 47.8598 66C48.7998 65.41 49.7398 64.8 50.7198 64.29L52.2098 63.57L52.9498 63.21L53.7298 62.93C57.7453 61.3735 62.0527 60.7148 66.3498 61C72.1088 61.3739 77.6282 63.4442 82.2124 66.95C86.7966 70.4558 90.2404 75.2401 92.1098 80.7C93.1485 83.7542 93.6953 86.9541 93.7299 90.18C93.7549 95.5411 92.2979 100.805 89.5198 105.39V105.23C94.3998 114.04 96.8599 118.49 97.4099 119.47C96.8399 118.47 94.2898 114.1 89.2398 105.38V105.3V105.22C91.9182 100.679 93.3016 95.4915 93.2398 90.22C93.1934 87.0458 92.6398 83.8994 91.5998 80.9C89.7507 75.5517 86.3649 70.8679 81.8664 67.4348C77.3678 64.0018 71.9565 61.9721 66.3098 61.6C62.0974 61.3254 57.8757 61.9739 53.9398 63.5L53.1798 63.77L52.4498 64.13L50.9899 64.83C49.9899 65.34 49.1098 65.93 48.1798 66.51C46.3567 67.7658 44.6796 69.2215 43.1798 70.85C40.3347 73.9064 38.1961 77.5509 36.9156 81.5255C35.6351 85.5 35.244 89.7075 35.7698 93.85C36.697 101.439 40.5906 108.353 46.5998 113.08C49.2864 115.209 52.3354 116.835 55.5998 117.88C58.5893 118.804 61.7008 119.273 64.8298 119.27C70.1383 119.213 75.3284 117.694 79.8298 114.88H79.8898H79.9998L97.4198 119.47Z" fill="#263238"/>
<path d="M61.9997 77.3L62.8897 91.9999C62.9252 92.5798 63.1716 93.1266 63.5824 93.5373C63.9931 93.9481 64.5399 94.1944 65.1197 94.23C65.7298 94.2644 66.3299 94.0639 66.7968 93.6696C67.2636 93.2753 67.5617 92.7172 67.6297 92.1099L69.2597 77.3799C69.2881 77.1164 69.2601 76.8499 69.1777 76.598C69.0952 76.3461 68.9602 76.1145 68.7814 75.9188C68.6027 75.7231 68.3844 75.5676 68.1411 75.4626C67.8977 75.3576 67.6347 75.3056 67.3697 75.3099H63.7997C63.5492 75.3174 63.3028 75.3754 63.0753 75.4805C62.8478 75.5856 62.6438 75.7355 62.4757 75.9214C62.3076 76.1073 62.1788 76.3252 62.097 76.5621C62.0152 76.799 61.9821 77.05 61.9997 77.3V77.3Z" fill="#4D56A4"/>
<path d="M68.9998 102.44C68.776 103.111 68.3582 103.702 67.7992 104.136C67.2401 104.57 66.565 104.829 65.8589 104.879C65.1529 104.93 64.4478 104.77 63.8326 104.42C63.2175 104.069 62.7199 103.545 62.4028 102.912C62.0857 102.279 61.9633 101.567 62.0511 100.864C62.1388 100.162 62.4328 99.5013 62.8959 98.966C63.359 98.4307 63.9704 98.0447 64.6528 97.8567C65.3351 97.6687 66.058 97.6873 66.7298 97.91C67.1765 98.058 67.5897 98.2927 67.9456 98.6006C68.3015 98.9085 68.5932 99.2836 68.8041 99.7043C69.0149 100.125 69.1407 100.583 69.1743 101.053C69.2079 101.522 69.1486 101.993 68.9998 102.44Z" fill="#4D56A4"/>
</svg>
